<svg xmlns="http://www.w3.org/2000/svg" width="24" height="24" fill="none" viewBox="0 0 24 24">
  <path stroke="#CD148E" stroke-linejoin="round" d="M21.761 8.657c0-2.121-1.767-2.121-3.005-3.358-1.237-1.238-1.237-3.006-3.359-3.006-1.414 0-2.651 1.591-2.651 2.652 0 1.06.353 1.768 1.06 2.475l-6.364 6.364c-.707-.707-1.414-1.06-2.474-1.06-1.061 0-2.652 1.237-2.652 2.65-.177 2.299 1.945 2.299 3.005 3.36 1.06 1.06 1.06 3.181 3.359 3.005 1.414 0 2.652-1.591 2.652-2.652 0-1.06-.354-1.768-1.061-2.475l6.364-6.364c.707.707 1.414 1.061 2.475 1.061 1.06 0 2.651-1.237 2.651-2.652Z"/>
</svg>
