<svg xmlns="http://www.w3.org/2000/svg" width="24" height="24" fill="none" viewBox="0 0 24 24">
  <path stroke="#FFC94D" stroke-linecap="round" stroke-linejoin="round" d="M7 7.5c2.761 0 5-1.12 5-2.5S9.761 2.5 7 2.5 2 3.62 2 5s2.239 2.5 5 2.5Z"/>
  <path stroke="#FFC94D" stroke-linecap="round" stroke-linejoin="round" d="M2 5v3.5C2 9.88 4.239 11 7 11s5-1.12 5-2.5V5"/>
  <path stroke="#FFC94D" stroke-linecap="round" stroke-linejoin="round" d="M2 8.5V12c0 1.38 2.239 2.5 5 2.5s5-1.12 5-2.5V8.5"/>
  <path stroke="#FFC94D" stroke-linecap="round" stroke-linejoin="round" d="M2 12v3.5C2 16.88 4.239 18 7 18s5-1.12 5-2.5V12"/>
  <path stroke="#FFC94D" stroke-linecap="round" stroke-linejoin="round" d="M2 15.5V19c0 1.38 2.239 2.5 5 2.5s5-1.12 5-2.5v-3.5m5-1c2.761 0 5-1.12 5-2.5s-2.239-2.5-5-2.5-5 1.12-5 2.5 2.239 2.5 5 2.5Z"/>
  <path stroke="#FFC94D" stroke-linecap="round" stroke-linejoin="round" d="M12 12v3.5c0 1.38 2.239 2.5 5 2.5s5-1.12 5-2.5V12"/>
  <path stroke="#FFC94D" stroke-linecap="round" stroke-linejoin="round" d="M12 15.5V19c0 1.38 2.239 2.5 5 2.5s5-1.12 5-2.5v-3.5"/>
</svg>
