<svg xmlns="http://www.w3.org/2000/svg" width="24" height="24" fill="none" viewBox="0 0 24 24">
  <path stroke="#749000" stroke-linecap="round" stroke-linejoin="round" d="m8.5 5-1-2.5c-1.083.417-3.4 2.9-3 6.5m11-4 1-2.5c1.083.417 3.4 2.9 3 6.5"/>
  <path stroke="#749000" d="M21 14.25c0 4.832-4.03 7.25-9 7.25s-9-2.418-9-7.25S7.03 4.5 12 4.5s9 4.918 9 9.75Z"/>
  <path fill="#749000" d="M9.999 10a1 1 0 1 0 0-2 1 1 0 0 0 0 2Zm4 0a1 1 0 1 0 0-2 1 1 0 0 0 0 2Z"/>
  <path stroke="#749000" stroke-linecap="round" stroke-linejoin="round" d="M11.991 13.05c0 1.162.35 3.857-2.104 3.857a2.104 2.104 0 0 1-2.103-2.104"/>
  <path stroke="#749000" stroke-linecap="round" stroke-linejoin="round" d="M12.008 13.05c0 1.162-.35 3.857 2.104 3.857a2.104 2.104 0 0 0 2.104-2.104"/>
  <path stroke="#749000" stroke-linejoin="round" d="M12.994 12.925c0 .345-1 .875-1 .875s-1-.53-1-.875.25-.625 1-.625 1 .28 1 .625Z"/>
</svg>
