<svg width="24" height="24" viewBox="0 0 24 24" fill="none" xmlns="http://www.w3.org/2000/svg">
<g clip-path="url(#clip0_938_84688)">
<path d="M11.996 24C11.3126 18.2035 15.8498 12.7496 21.6141 12.0513C22.0126 12.0026 22.4123 11.9754 22.8112 11.9739C23.2099 11.9717 23.6073 11.9926 24.0005 12.0433V12.0523C22.4646 12.2415 20.9428 12.6348 19.5475 13.2915C16.7945 14.5642 14.5269 16.8225 13.2492 19.5648C12.7608 20.5993 12.4085 21.7112 12.1897 22.8411C12.1155 23.2228 12.0566 23.6091 12.005 24H11.9962H11.996Z" fill="white"/>
<path d="M12.0045 0.0955811C12.6876 5.89235 8.15069 11.3459 2.38637 12.0443C1.98793 12.093 1.58824 12.1202 1.1893 12.1217C0.790611 12.1239 0.393176 12.1029 0 12.0523V12.0433C1.53587 11.8541 3.0577 11.4607 4.45298 10.8041C7.20596 9.5314 9.47355 7.27309 10.7513 4.53083C11.2397 3.49627 11.592 2.38434 11.8108 1.25444C11.885 0.87281 11.9439 0.486442 11.9955 0.0955811H12.0043H12.0045Z" fill="white"/>
<path d="M24.0001 12.052C18.1802 12.7327 12.7048 8.21356 12.0036 2.4722C11.9548 2.07535 11.9274 1.67725 11.9259 1.2799C11.9237 0.882799 11.9447 0.486946 11.9956 0.0953369H12.0046C12.1946 1.62509 12.5895 3.14086 13.2488 4.53058C14.5266 7.2726 16.7939 9.53116 19.5471 10.8038C20.5858 11.2903 21.7022 11.6412 22.8366 11.8591C23.2198 11.933 23.6077 11.9916 24.0001 12.043V12.0518V12.052Z" fill="white"/>
<path d="M0 12.0436C5.81995 11.3629 11.2953 15.882 11.9965 21.6234C12.0454 22.0202 12.0727 22.4183 12.0742 22.8157C12.0764 23.2128 12.0554 23.6087 12.0045 24.0003H11.9955C11.8055 22.4705 11.4106 20.9547 10.7513 19.565C9.47355 16.823 7.20621 14.5644 4.45298 13.2918C3.41429 12.8053 2.29791 12.4544 1.16349 12.2365C0.780337 12.1626 0.392424 12.104 0 12.0526V12.0438L0 12.0436Z" fill="white"/>
<path d="M12.0048 0C12.0517 0.316233 12.0775 0.635211 12.0853 0.955937C12.0903 1.08722 12.0793 1.30387 12.078 1.43865C12.0743 1.57068 12.0507 1.78683 12.0407 1.92186C12.0384 1.95306 12.0322 2.01196 12.0269 2.04241C12.0159 2.11205 11.9856 2.32944 11.974 2.40357C11.9643 2.48469 11.9442 2.56306 11.9284 2.64293C11.8981 2.78619 11.8603 2.98137 11.8194 3.11915C10.9606 6.4819 7.9716 9.17375 4.51096 9.63125L4.39042 9.64872L4.33028 9.65721C4.22628 9.66694 4.11753 9.67468 4.02656 9.68291L3.90553 9.6929L3.84514 9.69789C3.82484 9.69889 3.80454 9.69889 3.78424 9.69964C3.65745 9.70014 3.42841 9.71187 3.2996 9.70687C2.9776 9.69939 2.65709 9.67368 2.33984 9.62676V9.61777C2.73051 9.54764 3.11893 9.48649 3.50308 9.39064L3.73087 9.33673C3.74966 9.33224 3.76871 9.32799 3.7875 9.323C3.91179 9.28831 4.11026 9.2324 4.23606 9.19771C4.4255 9.13556 4.65354 9.06742 4.83973 8.99629C8.09715 7.83419 10.5517 5.23694 11.5568 1.94382C11.6034 1.79581 11.657 1.5909 11.7004 1.44189C11.735 1.29314 11.7896 1.08023 11.8222 0.930478C11.8512 0.77648 11.8853 0.622732 11.9149 0.468733C11.9404 0.313487 11.9658 0.157492 11.9963 0H12.0051L12.0048 0Z" fill="white"/>
<path d="M24.0001 12.052C23.6826 12.0987 23.3624 12.1247 23.0404 12.1322C22.9085 12.1372 22.691 12.1262 22.5557 12.1249C22.4231 12.1212 22.2061 12.0977 22.0706 12.0877C22.0392 12.0855 21.9801 12.0792 21.9495 12.074C21.8796 12.063 21.6616 12.0328 21.5869 12.0213C21.5055 12.0116 21.4268 11.9916 21.3466 11.9759C21.2028 11.9457 21.0068 11.908 20.8685 11.8673C17.4923 11.012 14.7897 8.03486 14.3303 4.588L14.3128 4.46795L14.3043 4.40804C14.2945 4.30446 14.2867 4.19614 14.2785 4.10554L14.2682 3.98499L14.2632 3.92484C14.2622 3.90462 14.2622 3.8844 14.2614 3.86418C14.2609 3.73789 14.2492 3.50976 14.2542 3.38147C14.2617 3.06075 14.2875 2.74152 14.3346 2.42554H14.3436C14.414 2.81465 14.4754 3.20152 14.5717 3.58414L14.6258 3.81102C14.6303 3.82974 14.6346 3.84871 14.6396 3.86743C14.6744 3.99123 14.7305 4.1889 14.7654 4.3142C14.8278 4.50289 14.8962 4.73002 14.9676 4.91547C16.1343 8.15991 18.742 10.6047 22.0483 11.6058C22.1969 11.6522 22.4026 11.7056 22.5522 11.7488C22.7016 11.7832 22.9156 11.8376 23.0657 11.8703C23.2203 11.8993 23.3746 11.9332 23.5293 11.9627C23.6851 11.9881 23.8417 12.0134 23.9999 12.0436V12.0523L24.0001 12.052Z" fill="white"/>
<path d="M9.65648 21.6701C9.58607 21.281 9.52467 20.8941 9.42845 20.5115C9.39687 20.3745 9.35252 20.1917 9.31292 20.0602C9.28837 19.9736 9.24326 19.8066 9.2167 19.7263C8.21158 16.4329 5.7568 13.8356 2.49963 12.6738C2.31345 12.6024 2.08541 12.5343 1.89596 12.4724C1.77242 12.4387 1.5712 12.3813 1.44741 12.3471C1.32813 12.3169 1.26347 12.3042 1.16299 12.2794C0.779084 12.1836 0.39067 12.1224 0 12.0523V12.0433C0.317497 11.9967 0.637751 11.9707 0.959759 11.9632C1.09157 11.9582 1.30908 11.9692 1.4444 11.9704C1.5088 11.9694 1.62031 11.9827 1.68672 11.9872L1.92954 12.0076L1.99044 12.0129C2.02351 12.0179 2.13553 12.0333 2.17136 12.0388C5.72398 12.5118 8.7521 15.3122 9.53871 18.788C9.56251 18.9203 9.61714 19.1325 9.63443 19.2665C9.64696 19.3626 9.68305 19.589 9.69583 19.6876C9.7066 19.8214 9.7264 20.0368 9.73667 20.1708C9.74168 20.2834 9.74043 20.3762 9.74394 20.473C9.75171 20.7119 9.73692 20.9568 9.72264 21.1941C9.7051 21.3536 9.68756 21.5123 9.66525 21.6698H9.65648V21.6701Z" fill="white"/>
<path d="M21.6611 14.3782C21.2704 14.4483 20.882 14.5095 20.4978 14.6053C20.3602 14.637 20.1768 14.6809 20.0447 14.7204C19.9578 14.7448 19.7902 14.79 19.7095 14.8162C16.4029 15.8176 13.7953 18.2623 12.6288 21.5065C12.5571 21.692 12.4887 21.9191 12.4266 22.1078C12.393 22.2308 12.3351 22.4313 12.3008 22.5546C12.2704 22.6734 12.2577 22.7378 12.2329 22.8378C12.1369 23.2205 12.0752 23.6073 12.0048 23.9964H11.9958C11.9489 23.6802 11.9231 23.3612 11.9154 23.0405C11.9103 22.9092 11.9214 22.6926 11.9226 22.5578C11.9216 22.4937 11.9349 22.3826 11.9394 22.3164L11.96 22.0746L11.9652 22.0139C11.9702 21.981 11.9858 21.8694 11.9913 21.8337C12.4662 18.2953 15.2778 15.2792 18.7675 14.4957C18.9003 14.472 19.1133 14.4176 19.2479 14.4004C19.3446 14.3879 19.5716 14.352 19.6706 14.3392C19.8049 14.3285 20.0212 14.3088 20.1558 14.2986C20.2688 14.2936 20.362 14.2948 20.4592 14.2913C20.699 14.2836 20.9449 14.2983 21.1832 14.3125C21.3433 14.33 21.5027 14.3475 21.6608 14.3697V14.3784L21.6611 14.3782Z" fill="white"/>
</g>
<defs>
<clipPath id="clip0_938_84688">
<rect width="24" height="24" fill="white"/>
</clipPath>
</defs>
</svg>
