<svg xmlns="http://www.w3.org/2000/svg" width="24" height="24" fill="none" viewBox="0 0 24 24">
  <path stroke="#F5F5F5" stroke-linecap="round" stroke-linejoin="round" d="M7 15.25a2.5 2.5 0 1 0 0-5 2.5 2.5 0 0 0 0 5Zm10 0a2.5 2.5 0 1 0 0-5 2.5 2.5 0 0 0 0 5Z"/>
  <path stroke="#F5F5F5" stroke-linecap="round" stroke-linejoin="round" d="M12 20.25a5 5 0 0 0-10 0m20 0a5 5 0 0 0-10 0m4.565-12.333c0-2.301-2.141-4.167-4.782-4.167C9.14 3.75 7 5.615 7 7.917m9.565 0 1.163-2.04m-1.163 2.04L14.5 6.75"/>
</svg>
