<svg width="200" height="146" viewBox="0 0 200 146" fill="none" xmlns="http://www.w3.org/2000/svg">
<g clip-path="url(#clip0_813_28694)">
<path d="M99.9903 101C98.4242 87.4745 108.822 74.7489 122.032 73.1194C122.945 73.0058 123.861 72.9423 124.775 72.9389C125.689 72.9336 126.6 72.9825 127.501 73.1008V73.1217C123.981 73.5632 120.493 74.481 117.296 76.0132C110.987 78.9828 105.79 84.2522 102.862 90.6508C101.743 93.0648 100.936 95.6593 100.434 98.2957C100.264 99.1862 100.129 100.088 100.011 101H99.9908H99.9903Z" fill="#7DD7DD"/>
<path d="M100.01 45.2227C101.575 58.7485 91.1782 71.4735 77.9683 73.103C77.0552 73.2165 76.1392 73.28 75.225 73.2835C74.3113 73.2888 73.4005 73.2398 72.4995 73.1216V73.1007C76.0192 72.6592 79.5067 71.7414 82.7043 70.2091C89.0132 67.2396 94.2097 61.9702 97.1379 55.5716C98.2572 53.1576 99.0646 50.5631 99.5659 47.9267C99.7359 47.0362 99.8709 46.1347 99.9892 45.2227H100.009H100.01Z" fill="#7DD7DD"/>
<path d="M127.5 73.1216C114.163 74.7098 101.615 64.1652 100.008 50.7687C99.8961 49.8427 99.8335 48.9138 99.8301 47.9866C99.8249 47.0601 99.8732 46.1364 99.9897 45.2227H100.01C100.446 48.7921 101.351 52.3289 102.862 55.5716C105.79 61.9696 110.986 67.2396 117.295 70.2091C119.676 71.3442 122.234 72.163 124.834 72.6714C125.712 72.8438 126.601 72.9807 127.5 73.1006V73.121V73.1216Z" fill="#7DD7DD"/>
<path d="M72.5 73.102C85.8374 71.5138 98.3852 82.0584 99.992 95.4549C100.104 96.3809 100.167 97.3098 100.17 98.237C100.175 99.1635 100.127 100.087 100.01 101.001H99.9897C99.5544 97.4315 98.6493 93.8947 97.1384 90.652C94.2102 84.254 89.0142 78.984 82.7048 76.0145C80.3244 74.8794 77.766 74.0606 75.1663 73.5522C74.2883 73.3798 73.3993 73.2429 72.5 73.1229V73.1026V73.102Z" fill="#7DD7DD"/>
<path d="M100.01 45C100.117 45.7379 100.176 46.4822 100.194 47.2305C100.206 47.5369 100.18 48.0424 100.177 48.3568C100.169 48.6649 100.115 49.1693 100.092 49.4843C100.087 49.5571 100.072 49.6946 100.06 49.7656C100.035 49.9281 99.9656 50.4354 99.9392 50.6083C99.9168 50.7976 99.8708 50.9805 99.8347 51.1668C99.7652 51.5011 99.6785 51.9565 99.5848 52.278C97.6168 60.1244 90.767 66.4054 82.8363 67.4729L82.5601 67.5137L82.4223 67.5335C82.1839 67.5562 81.9347 67.5742 81.7262 67.5935L81.4489 67.6168L81.3105 67.6284C81.264 67.6307 81.2174 67.6307 81.1709 67.6325C80.8803 67.6336 80.3555 67.661 80.0603 67.6494C79.3224 67.6319 78.5879 67.5719 77.8608 67.4624V67.4415C78.7561 67.2778 79.6462 67.1351 80.5266 66.9115L81.0486 66.7857C81.0917 66.7752 81.1353 66.7653 81.1784 66.7537C81.4632 66.6727 81.918 66.5423 82.2063 66.4613C82.6405 66.3163 83.1631 66.1573 83.5897 65.9913C91.0547 63.2798 96.6796 57.2195 98.983 49.5356C99.0898 49.1902 99.2127 48.7121 99.3121 48.3644C99.3913 48.0173 99.5165 47.5205 99.5912 47.1711C99.6578 46.8118 99.7359 46.453 99.8036 46.0937C99.8622 45.7315 99.9202 45.3675 99.9903 45H100.01L100.01 45Z" fill="#7DD7DD"/>
<path d="M127.5 73.121C126.772 73.2299 126.038 73.2905 125.301 73.308C124.998 73.3196 124.5 73.294 124.19 73.2911C123.886 73.2824 123.389 73.2276 123.078 73.2043C123.006 73.1991 122.871 73.1845 122.801 73.1723C122.641 73.1467 122.141 73.0762 121.97 73.0494C121.783 73.0267 121.603 72.9801 121.419 72.9434C121.089 72.8729 120.64 72.785 120.323 72.6901C112.586 70.6942 106.393 63.7476 105.34 55.7049L105.3 55.4248L105.28 55.285C105.258 55.0433 105.24 54.7906 105.221 54.5792L105.198 54.2979L105.186 54.1575C105.184 54.1104 105.184 54.0632 105.182 54.016C105.181 53.7213 105.154 53.189 105.166 52.8897C105.183 52.1413 105.242 51.3965 105.35 50.6592H105.371C105.532 51.5671 105.673 52.4698 105.893 53.3626L106.017 53.892C106.028 53.9357 106.037 53.9799 106.049 54.0236C106.129 54.3125 106.257 54.7737 106.337 55.0661C106.48 55.5063 106.637 56.0363 106.801 56.469C109.474 64.0394 115.45 69.7438 123.027 72.0797C123.368 72.1881 123.839 72.3127 124.182 72.4134C124.524 72.4938 125.015 72.6208 125.359 72.6971C125.713 72.7646 126.067 72.8438 126.421 72.9125C126.778 72.9719 127.137 73.0308 127.499 73.1012V73.1216L127.5 73.121Z" fill="#7DD7DD"/>
<path d="M94.6294 95.5635C94.4681 94.6556 94.3274 93.7529 94.1069 92.8601C94.0345 92.5404 93.9329 92.1141 93.8421 91.8072C93.7858 91.6051 93.6825 91.2155 93.6216 91.0279C91.3182 83.3434 85.6927 77.2832 78.2283 74.5722C77.8016 74.4056 77.2791 74.2466 76.8449 74.1022C76.5618 74.0236 76.1007 73.8896 75.817 73.8099C75.5436 73.7394 75.3955 73.7097 75.1652 73.652C74.2854 73.4284 73.3953 73.2857 72.5 73.1221V73.1011C73.2276 72.9922 73.9615 72.9316 74.6994 72.9142C75.0015 72.9025 75.5 72.9281 75.8101 72.931C75.9577 72.9287 76.2132 72.9596 76.3654 72.9701L76.9219 73.0178L77.0614 73.03C77.1372 73.0417 77.3939 73.0778 77.476 73.0906C85.6174 74.1942 92.5569 80.7285 94.3595 88.8388C94.4141 89.1474 94.5393 89.6425 94.5789 89.9552C94.6076 90.1794 94.6903 90.7076 94.7196 90.9377C94.7443 91.2498 94.7897 91.7524 94.8132 92.0652C94.8247 92.3278 94.8218 92.5445 94.8299 92.7704C94.8477 93.3278 94.8138 93.8991 94.781 94.4529C94.7408 94.8251 94.7006 95.1955 94.6495 95.5629H94.6294V95.5635Z" fill="#7DD7DD"/>
<path d="M122.139 78.5494C121.244 78.7131 120.354 78.8558 119.473 79.0794C119.158 79.1534 118.738 79.2559 118.435 79.3479C118.236 79.405 117.852 79.5104 117.667 79.5715C110.089 81.908 104.114 87.6125 101.44 95.1822C101.276 95.615 101.119 96.1449 100.977 96.5852C100.9 96.8723 100.767 97.34 100.689 97.6277C100.619 97.9049 100.59 98.0551 100.533 98.2887C100.313 99.1815 100.172 100.084 100.01 100.992H99.9897C99.8823 100.254 99.8231 99.5099 99.8053 98.7616C99.7939 98.4552 99.8191 97.9497 99.822 97.6352C99.8197 97.4856 99.8501 97.2264 99.8605 97.0721L99.9076 96.5077L99.9196 96.3662C99.9311 96.2894 99.9667 96.029 99.9793 95.9457C101.068 87.6893 107.511 80.6518 115.508 78.8237C115.813 78.7684 116.301 78.6415 116.609 78.6013C116.831 78.5722 117.351 78.4883 117.578 78.4586C117.886 78.4336 118.381 78.3875 118.69 78.3637C118.949 78.352 119.162 78.3549 119.385 78.3468C119.935 78.3287 120.498 78.3631 121.044 78.3963C121.411 78.437 121.776 78.4778 122.139 78.5296V78.55L122.139 78.5494Z" fill="#7DD7DD"/>
</g>
<g clip-path="url(#clip1_813_28694)">
<path d="M184.005 101C184.888 93.5125 179.028 86.468 171.582 85.566C171.067 85.5031 170.551 85.468 170.036 85.466C169.521 85.4631 169.007 85.4902 168.5 85.5557V85.5673C170.483 85.8116 172.449 86.3197 174.251 87.1679C177.807 88.8118 180.736 91.7288 182.387 95.2709C183.018 96.6072 183.473 98.0434 183.755 99.5029C183.851 99.9958 183.927 100.495 183.994 101H184.005H184.005Z" fill="#7DD7DD"/>
<path d="M183.994 70.123C183.112 77.6105 188.972 84.6548 196.418 85.5568C196.933 85.6197 197.449 85.6548 197.964 85.6567C198.479 85.6596 198.992 85.6326 199.5 85.5671V85.5555C197.516 85.3111 195.551 84.8031 193.748 83.9548C190.193 82.311 187.264 79.394 185.613 75.8519C184.982 74.5156 184.527 73.0794 184.245 71.6199C184.149 71.127 184.073 70.6279 184.006 70.123H183.995H183.994Z" fill="#7DD7DD"/>
<path d="M168.5 85.5671C176.017 86.4463 183.09 80.6091 183.995 73.1932C184.059 72.6806 184.094 72.1664 184.096 71.6531C184.099 71.1402 184.071 70.6289 184.006 70.123H183.994C183.749 72.099 183.239 74.0568 182.387 75.8519C180.737 79.3937 177.808 82.311 174.252 83.9548C172.91 84.5832 171.468 85.0365 170.003 85.3179C169.508 85.4133 169.007 85.4891 168.5 85.5555V85.5668V85.5671Z" fill="#7DD7DD"/>
<path d="M199.5 85.5566C191.983 84.6774 184.91 90.5146 184.005 97.9305C183.941 98.4431 183.906 98.9573 183.904 99.4706C183.901 99.9835 183.928 100.495 183.994 101.001H184.006C184.251 99.0247 184.761 97.0668 185.613 95.2718C187.263 91.73 190.192 88.8127 193.748 87.1688C195.09 86.5405 196.532 86.0872 197.997 85.8058C198.492 85.7103 198.993 85.6346 199.5 85.5682V85.5569V85.5566Z" fill="#7DD7DD"/>
<path d="M183.994 70C183.934 70.4085 183.901 70.8205 183.891 71.2348C183.884 71.4043 183.898 71.6842 183.9 71.8583C183.905 72.0288 183.935 72.308 183.948 72.4824C183.951 72.5227 183.959 72.5988 183.966 72.6381C183.98 72.7281 184.019 73.0089 184.034 73.1046C184.047 73.2094 184.073 73.3106 184.093 73.4138C184.132 73.5988 184.181 73.8509 184.234 74.0289C185.343 78.3725 189.204 81.8494 193.674 82.4404L193.83 82.4629L193.907 82.4739C194.042 82.4865 194.182 82.4965 194.3 82.5071L194.456 82.52L194.534 82.5264C194.56 82.5277 194.586 82.5277 194.613 82.5287C194.776 82.5293 195.072 82.5445 195.239 82.538C195.655 82.5284 196.069 82.4952 196.478 82.4346V82.423C195.974 82.3324 195.472 82.2534 194.976 82.1296L194.682 82.0599C194.657 82.0541 194.633 82.0487 194.609 82.0422C194.448 81.9974 194.192 81.9252 194.029 81.8804C193.784 81.8001 193.49 81.7121 193.249 81.6202C189.042 80.1192 185.871 76.7644 184.573 72.5108C184.513 72.3196 184.444 72.0549 184.388 71.8624C184.343 71.6703 184.272 71.3953 184.23 71.2019C184.193 71.003 184.149 70.8044 184.111 70.6054C184.078 70.4049 184.045 70.2034 184.005 70H183.994H183.994Z" fill="#7DD7DD"/>
<path d="M168.5 85.567C168.91 85.6273 169.324 85.6609 169.74 85.6705C169.91 85.677 170.191 85.6628 170.366 85.6612C170.537 85.6564 170.817 85.626 170.992 85.6132C171.033 85.6102 171.109 85.6022 171.149 85.5954C171.239 85.5812 171.521 85.5422 171.617 85.5274C171.722 85.5148 171.824 85.489 171.927 85.4687C172.113 85.4297 172.366 85.381 172.545 85.3285C176.906 84.2237 180.397 80.3782 180.99 75.926L181.013 75.7709L181.024 75.6936C181.036 75.5598 181.046 75.4198 181.057 75.3028L181.07 75.1471L181.077 75.0694C181.078 75.0433 181.078 75.0172 181.079 74.9911C181.08 74.8279 181.095 74.5333 181.088 74.3676C181.079 73.9533 181.045 73.541 180.985 73.1328H180.973C180.882 73.6354 180.803 74.1351 180.678 74.6293L180.608 74.9224C180.603 74.9466 180.597 74.9711 180.591 74.9953C180.546 75.1552 180.473 75.4105 180.428 75.5723C180.348 75.8161 180.259 76.1094 180.167 76.349C178.66 80.5397 175.292 83.6975 171.021 84.9906C170.829 85.0506 170.563 85.1196 170.37 85.1753C170.177 85.2198 169.901 85.2901 169.707 85.3324C169.507 85.3697 169.308 85.4136 169.108 85.4516C168.907 85.4845 168.705 85.5171 168.5 85.5561V85.5674L168.5 85.567Z" fill="#7DD7DD"/>
<path d="M187.027 97.9909C187.118 97.4883 187.197 96.9886 187.322 96.4944C187.362 96.3174 187.42 96.0814 187.471 95.9115C187.503 95.7996 187.561 95.5839 187.595 95.4801C188.893 91.2262 192.064 87.8714 196.271 86.3707C196.512 86.2785 196.806 86.1905 197.051 86.1105C197.211 86.067 197.471 85.9928 197.63 85.9487C197.785 85.9097 197.868 85.8932 197.998 85.8613C198.494 85.7375 198.995 85.6585 199.5 85.5679V85.5563C199.09 85.496 198.676 85.4625 198.26 85.4528C198.09 85.4464 197.809 85.4606 197.634 85.4622C197.551 85.4609 197.407 85.478 197.321 85.4838L197.008 85.5102L196.929 85.517C196.886 85.5234 196.742 85.5434 196.695 85.5505C192.107 86.1615 188.195 89.7787 187.179 94.2683C187.148 94.4391 187.078 94.7132 187.056 94.8863C187.039 95.0104 186.993 95.3028 186.976 95.4302C186.962 95.603 186.937 95.8812 186.923 96.0543C186.917 96.1997 186.919 96.3196 186.914 96.4447C186.904 96.7532 186.923 97.0695 186.942 97.3761C186.964 97.5821 186.987 97.7871 187.016 97.9906H187.027V97.9909Z" fill="#7DD7DD"/>
<path d="M171.521 88.572C172.026 88.6626 172.528 88.7416 173.024 88.8654C173.202 88.9063 173.439 88.963 173.609 89.014C173.722 89.0456 173.938 89.1039 174.042 89.1378C178.313 90.4312 181.681 93.589 183.188 97.7794C183.281 98.019 183.369 98.3123 183.449 98.5561C183.493 98.715 183.567 98.9739 183.612 99.1331C183.651 99.2866 183.668 99.3698 183.7 99.499C183.824 99.9933 183.903 100.493 183.994 100.996H184.006C184.066 100.587 184.1 100.175 184.11 99.7608C184.116 99.5913 184.102 99.3114 184.1 99.1373C184.102 99.0545 184.084 98.911 184.079 98.8256L184.052 98.5132L184.045 98.4348C184.039 98.3923 184.019 98.2482 184.012 98.2021C183.398 93.6316 179.767 89.7358 175.259 88.7238C175.087 88.6932 174.812 88.6229 174.638 88.6007C174.514 88.5846 174.22 88.5381 174.092 88.5217C173.919 88.5078 173.64 88.4824 173.466 88.4691C173.32 88.4627 173.199 88.4643 173.074 88.4598C172.764 88.4498 172.447 88.4688 172.139 88.4872C171.932 88.5098 171.726 88.5323 171.522 88.561V88.5723L171.521 88.572Z" fill="#7DD7DD"/>
</g>
<g clip-path="url(#clip2_813_28694)">
<path d="M16.0055 74.9997C16.8881 67.5125 11.0276 60.468 3.58204 59.566C3.06739 59.5031 2.55112 59.468 2.03582 59.466C1.52085 59.4631 1.0075 59.4902 0.499643 59.5557V59.5673C2.48347 59.8116 4.44917 60.3197 6.25141 61.1679C9.80735 62.8118 12.7363 65.7288 14.3868 69.2709C15.0176 70.6072 15.4727 72.0434 15.7553 73.5029C15.8511 73.9958 15.9271 74.4949 15.9938 74.9997H16.0051H16.0055Z" fill="#7DD7DD"/>
<path d="M15.9944 44.123C15.1121 51.6105 20.9723 58.6548 28.4179 59.5568C28.9325 59.6197 29.4488 59.6548 29.9641 59.6567C30.479 59.6596 30.9924 59.6326 31.5002 59.5671V59.5555C29.5164 59.3111 27.5507 58.8031 25.7485 57.9548C22.1925 56.311 19.2636 53.394 17.6131 49.8519C16.9823 48.5156 16.5272 47.0794 16.2446 45.6199C16.1488 45.127 16.0727 44.6279 16.0061 44.123H15.9947H15.9944Z" fill="#7DD7DD"/>
<path d="M0.49993 59.5671C8.01737 60.4463 15.0897 54.6091 15.9954 47.1932C16.0585 46.6806 16.0938 46.1664 16.0957 45.6531C16.0986 45.1402 16.0715 44.6289 16.0058 44.123H15.9941C15.7488 46.099 15.2386 48.0568 14.387 49.8519C12.7366 53.3937 9.80796 56.311 6.2517 57.9548C4.91005 58.5832 3.46806 59.0365 2.00277 59.3179C1.50786 59.4133 1.00681 59.4891 0.49993 59.5555V59.5668V59.5671Z" fill="#7DD7DD"/>
<path d="M31.5 59.5566C23.9826 58.6774 16.9102 64.5146 16.0045 71.9305C15.9414 72.4431 15.9061 72.9573 15.9042 73.4706C15.9013 73.9835 15.9285 74.4948 15.9942 75.0006H16.0058C16.2512 73.0247 16.7613 71.0668 17.6129 69.2718C19.2633 65.73 22.192 62.8127 25.7482 61.1688C27.0899 60.5405 28.5319 60.0872 29.9972 59.8058C30.4921 59.7103 30.9931 59.6346 31.5 59.5682V59.5569L31.5 59.5566Z" fill="#7DD7DD"/>
<path d="M15.9944 44C15.9339 44.4085 15.9006 44.8205 15.8905 45.2348C15.8841 45.4043 15.8983 45.6842 15.8999 45.8583C15.9048 46.0288 15.9352 46.308 15.9481 46.4824C15.9511 46.5227 15.9591 46.5988 15.9659 46.6381C15.9802 46.7281 16.0194 47.0089 16.0342 47.1046C16.0469 47.2094 16.0728 47.3106 16.0932 47.4138C16.1323 47.5988 16.1812 47.8509 16.234 48.0289C17.3432 52.3725 21.204 55.8494 25.674 56.4404L25.8297 56.4629L25.9074 56.4739C26.0417 56.4865 26.1822 56.4965 26.2997 56.5071L26.456 56.52L26.5341 56.5264C26.5603 56.5277 26.5865 56.5277 26.6127 56.5287C26.7765 56.5293 27.0723 56.5445 27.2387 56.538C27.6546 56.5284 28.0686 56.4952 28.4784 56.4346V56.423C27.9738 56.3324 27.4721 56.2534 26.9759 56.1296L26.6817 56.0599C26.6574 56.0541 26.6328 56.0487 26.6085 56.0422C26.448 55.9974 26.1916 55.9252 26.0291 55.8804C25.7844 55.8001 25.4899 55.7121 25.2494 55.6202C21.0419 54.1192 17.8714 50.7644 16.5732 46.5108C16.513 46.3196 16.4437 46.0549 16.3877 45.8624C16.343 45.6703 16.2725 45.3953 16.2304 45.2019C16.1928 45.003 16.1488 44.8044 16.1106 44.6054C16.0776 44.4049 16.0449 44.2034 16.0054 44H15.9941L15.9944 44Z" fill="#7DD7DD"/>
<path d="M0.499978 59.567C0.910078 59.6273 1.32374 59.6609 1.73967 59.6705C1.90992 59.677 2.19088 59.6628 2.36566 59.6612C2.53689 59.6564 2.81719 59.626 2.9923 59.6132C3.03276 59.6102 3.10915 59.6022 3.14864 59.5954C3.23895 59.5812 3.52055 59.5422 3.617 59.5274C3.7222 59.5148 3.82383 59.489 3.92741 59.4687C4.1132 59.4297 4.36632 59.381 4.54499 59.3285C8.90591 58.2237 12.3968 54.3782 12.9901 49.926L13.0127 49.7709L13.0238 49.6936C13.0364 49.5598 13.0464 49.4198 13.0571 49.3028L13.0704 49.1471L13.0768 49.0694C13.0781 49.0433 13.0781 49.0172 13.0791 48.9911C13.0797 48.8279 13.095 48.5333 13.0885 48.3676C13.0788 47.9533 13.0454 47.541 12.9846 47.1328H12.9729C12.882 47.6354 12.8027 48.1351 12.6784 48.6293L12.6085 48.9224C12.6026 48.9466 12.5971 48.9711 12.5907 48.9953C12.5457 49.1552 12.4732 49.4105 12.4282 49.5723C12.3476 49.8161 12.2592 50.1094 12.167 50.349C10.6599 54.5397 7.29173 57.6975 3.02111 58.9906C2.82917 59.0506 2.56343 59.1196 2.37019 59.1753C2.17728 59.2198 1.90086 59.2901 1.70697 59.3324C1.50727 59.3697 1.30788 59.4136 1.10817 59.4516C0.906841 59.4845 0.704543 59.5171 0.500301 59.5561V59.5674L0.499978 59.567Z" fill="#7DD7DD"/>
<path d="M19.027 71.9909C19.118 71.4883 19.1973 70.9886 19.3216 70.4944C19.3624 70.3174 19.4197 70.0814 19.4708 69.9115C19.5025 69.7996 19.5608 69.5839 19.5951 69.4801C20.8934 65.2262 24.0641 61.8714 28.2713 60.3707C28.5118 60.2785 28.8063 60.1905 29.051 60.1105C29.2106 60.067 29.4705 59.9928 29.6304 59.9487C29.7845 59.9097 29.868 59.8932 29.9978 59.8613C30.4937 59.7375 30.9954 59.6585 31.5 59.5679V59.5563C31.0899 59.496 30.6762 59.4625 30.2603 59.4528C30.0901 59.4464 29.8091 59.4606 29.6343 59.4622C29.5511 59.4609 29.4071 59.478 29.3213 59.4838L29.0077 59.5102L28.929 59.517C28.8863 59.5234 28.7416 59.5434 28.6953 59.5505C24.1065 60.1615 20.1952 63.7787 19.1792 68.2683C19.1484 68.4391 19.0779 68.7132 19.0555 68.8863C19.0393 69.0104 18.9927 69.3028 18.9762 69.4302C18.9623 69.603 18.9367 69.8812 18.9235 70.0543C18.917 70.1997 18.9186 70.3196 18.9141 70.4447C18.904 70.7532 18.9231 71.0695 18.9416 71.3761C18.9643 71.5821 18.9869 71.7871 19.0157 71.9906H19.027V71.9909Z" fill="#7DD7DD"/>
<path d="M3.52146 62.572C4.02608 62.6626 4.52778 62.7416 5.02398 62.8654C5.20168 62.9063 5.43861 62.963 5.60919 63.014C5.72151 63.0456 5.93805 63.1039 6.04227 63.1378C10.3132 64.4312 13.6814 67.589 15.1881 71.7794C15.2807 72.019 15.3691 72.3123 15.4493 72.5561C15.4927 72.715 15.5675 72.9739 15.6118 73.1331C15.651 73.2866 15.6675 73.3698 15.6996 73.499C15.8235 73.9933 15.9031 74.493 15.9941 74.9956H16.0058C16.0663 74.5871 16.0996 74.1751 16.1097 73.7608C16.1161 73.5913 16.1019 73.3114 16.1003 73.1373C16.1016 73.0545 16.0844 72.911 16.0786 72.8256L16.052 72.5132L16.0452 72.4348C16.0388 72.3923 16.0187 72.2482 16.0116 72.2021C15.3982 67.6316 11.7665 63.7358 7.25898 62.7238C7.08743 62.6932 6.8123 62.6229 6.63849 62.6007C6.51355 62.5846 6.2203 62.5381 6.09244 62.5217C5.91895 62.5078 5.63962 62.4824 5.4658 62.4691C5.31982 62.4627 5.19941 62.4643 5.07383 62.4598C4.76407 62.4498 4.44654 62.4688 4.13872 62.4872C3.93189 62.5098 3.72603 62.5323 3.52179 62.561V62.5723L3.52146 62.572Z" fill="#7DD7DD"/>
</g>
<g clip-path="url(#clip3_813_28694)">
<path d="M55.4972 120C55.0416 115.894 58.0664 112.031 61.9093 111.536C62.1749 111.502 62.4413 111.483 62.7073 111.482C62.9731 111.48 63.2381 111.495 63.5002 111.531V111.537C62.4763 111.671 61.4617 111.95 60.5315 112.415C58.6962 113.316 57.1845 114.916 56.3326 116.858C56.007 117.591 55.7721 118.379 55.6263 119.179C55.5768 119.449 55.5376 119.723 55.5032 120H55.4973H55.4972Z" fill="#7DD7DD"/>
<path d="M55.5028 103.067C55.9582 107.173 52.9335 111.036 49.0907 111.531C48.825 111.566 48.5586 111.585 48.2926 111.586C48.0268 111.587 47.7619 111.573 47.4998 111.537V111.53C48.5237 111.396 49.5382 111.118 50.4684 110.653C52.3037 109.751 53.8155 108.151 54.6673 106.209C54.9929 105.476 55.2278 104.689 55.3736 103.888C55.4231 103.618 55.4623 103.344 55.4967 103.067H55.5026H55.5028Z" fill="#7DD7DD"/>
<path d="M63.5 111.537C59.62 112.019 55.9698 108.818 55.5023 104.751C55.4698 104.47 55.4516 104.188 55.4505 103.906C55.449 103.625 55.4631 103.345 55.497 103.067H55.503C55.6296 104.151 55.8929 105.225 56.3325 106.209C57.1843 108.151 58.6959 109.751 60.5313 110.653C61.2238 110.997 61.9681 111.246 62.7243 111.4C62.9798 111.452 63.2384 111.494 63.5 111.53V111.537V111.537Z" fill="#7DD7DD"/>
<path d="M47.5 111.531C51.38 111.048 55.0302 114.249 55.4977 118.316C55.5302 118.597 55.5484 118.879 55.5494 119.161C55.551 119.442 55.5369 119.723 55.503 120H55.497C55.3704 118.916 55.1071 117.843 54.6675 116.858C53.8157 114.916 52.3041 113.316 50.4687 112.415C49.7762 112.07 49.0319 111.822 48.2757 111.667C48.0202 111.615 47.7616 111.573 47.5 111.537V111.531V111.531Z" fill="#7DD7DD"/>
<path d="M55.5028 103C55.534 103.224 55.5512 103.45 55.5564 103.677C55.5598 103.77 55.5524 103.924 55.5516 104.019C55.5491 104.113 55.5334 104.266 55.5267 104.361C55.5252 104.383 55.521 104.425 55.5175 104.447C55.5101 104.496 55.4899 104.65 55.4822 104.703C55.4757 104.76 55.4624 104.815 55.4518 104.872C55.4316 104.974 55.4064 105.112 55.3792 105.209C54.8066 107.591 52.814 109.498 50.5069 109.822L50.4265 109.835L50.3864 109.841C50.3171 109.847 50.2446 109.853 50.1839 109.859L50.1032 109.866L50.063 109.869C50.0494 109.87 50.0359 109.87 50.0224 109.871C49.9378 109.871 49.7852 109.879 49.6993 109.876C49.4846 109.87 49.2709 109.852 49.0594 109.819V109.813C49.3199 109.763 49.5788 109.72 49.8349 109.652L49.9868 109.614C49.9993 109.61 50.012 109.607 50.0246 109.604C50.1074 109.579 50.2397 109.54 50.3236 109.515C50.4499 109.471 50.6019 109.423 50.726 109.372C52.8977 108.549 54.534 106.709 55.2041 104.377C55.2352 104.272 55.2709 104.127 55.2998 104.021C55.3229 103.916 55.3593 103.765 55.381 103.659C55.4004 103.55 55.4231 103.441 55.4428 103.332C55.4598 103.222 55.4767 103.112 55.4971 103H55.503H55.5028Z" fill="#7DD7DD"/>
<path d="M63.5 111.537C63.2883 111.57 63.0748 111.588 62.8601 111.593C62.7722 111.597 62.6272 111.589 62.537 111.588C62.4486 111.586 62.304 111.569 62.2136 111.562C62.1927 111.56 62.1533 111.556 62.1329 111.552C62.0863 111.544 61.9409 111.523 61.8912 111.515C61.8369 111.508 61.7844 111.494 61.731 111.483C61.6351 111.461 61.5044 111.435 61.4122 111.406C59.1614 110.8 57.3597 108.691 57.0534 106.25L57.0417 106.164L57.0361 106.122C57.0296 106.049 57.0244 105.972 57.0189 105.908L57.012 105.822L57.0087 105.78C57.008 105.765 57.008 105.751 57.0075 105.737C57.0072 105.647 56.9993 105.486 57.0027 105.395C57.0077 105.168 57.0249 104.942 57.0563 104.718H57.0623C57.1092 104.993 57.1502 105.267 57.2143 105.538L57.2504 105.699C57.2534 105.712 57.2563 105.726 57.2596 105.739C57.2828 105.827 57.3202 105.967 57.3435 106.056C57.3851 106.189 57.4307 106.35 57.4783 106.481C58.2561 108.78 59.9945 110.511 62.1987 111.22C62.2978 111.253 62.4349 111.291 62.5347 111.322C62.6342 111.346 62.7769 111.385 62.877 111.408C62.9801 111.428 63.083 111.452 63.186 111.473C63.29 111.491 63.3944 111.509 63.4998 111.531V111.537L63.5 111.537Z" fill="#7DD7DD"/>
<path d="M53.9377 118.349C53.8907 118.074 53.8498 117.8 53.7856 117.529C53.7646 117.432 53.735 117.302 53.7086 117.209C53.6922 117.148 53.6622 117.029 53.6445 116.972C52.9744 114.64 51.3379 112.8 49.1664 111.977C49.0423 111.926 48.8903 111.878 48.764 111.834C48.6816 111.81 48.5475 111.77 48.4649 111.745C48.3854 111.724 48.3423 111.715 48.2753 111.698C48.0194 111.63 47.7604 111.586 47.5 111.537V111.53C47.7117 111.497 47.9252 111.479 48.1398 111.474C48.2277 111.47 48.3727 111.478 48.4629 111.479C48.5059 111.478 48.5802 111.487 48.6245 111.491L48.7864 111.505L48.827 111.509C48.849 111.512 48.9237 111.523 48.9476 111.527C51.316 111.862 53.3347 113.846 53.8591 116.308C53.875 116.402 53.9114 116.552 53.923 116.647C53.9313 116.715 53.9554 116.875 53.9639 116.945C53.9711 117.04 53.9843 117.192 53.9911 117.287C53.9945 117.367 53.9936 117.433 53.996 117.501C54.0011 117.671 53.9913 117.844 53.9818 118.012C53.9701 118.125 53.9584 118.238 53.9435 118.349H53.9377V118.349Z" fill="#7DD7DD"/>
<path d="M61.9405 113.184C61.6801 113.234 61.4211 113.277 61.165 113.345C61.0733 113.367 60.951 113.399 60.863 113.427C60.805 113.444 60.6932 113.476 60.6394 113.494C58.4351 114.204 56.6967 115.935 55.919 118.233C55.8712 118.365 55.8256 118.526 55.7842 118.659C55.7618 118.746 55.7232 118.888 55.7003 118.976C55.6801 119.06 55.6716 119.105 55.655 119.176C55.5911 119.447 55.55 119.721 55.503 119.997H55.497C55.4658 119.773 55.4485 119.547 55.4434 119.32C55.44 119.227 55.4474 119.073 55.4482 118.978C55.4475 118.933 55.4564 118.854 55.4594 118.807L55.4731 118.636L55.4766 118.593C55.48 118.569 55.4903 118.49 55.494 118.465C55.8106 115.959 57.685 113.822 60.0115 113.267C60.1 113.251 60.242 113.212 60.3317 113.2C60.3962 113.191 60.5476 113.166 60.6135 113.157C60.7031 113.149 60.8473 113.135 60.937 113.128C61.0123 113.124 61.0745 113.125 61.1393 113.123C61.2992 113.117 61.463 113.128 61.6219 113.138C61.7287 113.15 61.8349 113.162 61.9403 113.178V113.184L61.9405 113.184Z" fill="#7DD7DD"/>
</g>
<g clip-path="url(#clip4_813_28694)">
<path d="M143.497 42C143.042 37.8942 146.066 34.031 149.909 33.5364C150.175 33.5019 150.441 33.4826 150.707 33.4816C150.973 33.48 151.238 33.4948 151.5 33.5307V33.5371C150.476 33.6711 149.462 33.9497 148.532 34.4149C146.696 35.3163 145.184 36.916 144.333 38.8584C144.007 39.5912 143.772 40.3788 143.626 41.1792C143.577 41.4495 143.538 41.7232 143.503 42H143.497H143.497Z" fill="#7DD7DD"/>
<path d="M143.503 25.0674C143.958 29.1734 140.934 33.0364 137.091 33.5311C136.825 33.5655 136.559 33.5848 136.293 33.5859C136.027 33.5875 135.762 33.5726 135.5 33.5367V33.5303C136.524 33.3963 137.538 33.1177 138.468 32.6526C140.304 31.7511 141.815 30.1515 142.667 28.209C142.993 27.4762 143.228 26.6886 143.374 25.8882C143.423 25.6179 143.462 25.3442 143.497 25.0674H143.503H143.503Z" fill="#7DD7DD"/>
<path d="M151.5 33.5367C147.62 34.0188 143.97 30.8178 143.502 26.751C143.47 26.4699 143.452 26.1879 143.451 25.9064C143.449 25.6252 143.463 25.3448 143.497 25.0674H143.503C143.63 26.151 143.893 27.2246 144.332 28.209C145.184 30.1513 146.696 31.7511 148.531 32.6526C149.224 32.9971 149.968 33.2457 150.724 33.4C150.98 33.4524 151.238 33.4939 151.5 33.5303V33.5365V33.5367Z" fill="#7DD7DD"/>
<path d="M135.5 33.5306C139.38 33.0485 143.03 36.2495 143.498 40.3163C143.53 40.5974 143.548 40.8794 143.549 41.1608C143.551 41.4421 143.537 41.7225 143.503 41.9999H143.497C143.37 40.9163 143.107 39.8427 142.668 38.8583C141.816 36.916 140.304 35.3162 138.469 34.4147C137.776 34.0701 137.032 33.8216 136.276 33.6672C136.02 33.6149 135.762 33.5734 135.5 33.5369V33.5308V33.5306Z" fill="#7DD7DD"/>
<path d="M143.503 25C143.534 25.224 143.551 25.4499 143.556 25.6771C143.56 25.7701 143.552 25.9236 143.552 26.019C143.549 26.1126 143.533 26.2657 143.527 26.3613C143.525 26.3834 143.521 26.4251 143.517 26.4467C143.51 26.496 143.49 26.65 143.482 26.7025C143.476 26.76 143.462 26.8155 143.452 26.8721C143.432 26.9736 143.406 27.1118 143.379 27.2094C142.807 29.5913 140.814 31.4981 138.507 31.8221L138.426 31.8345L138.386 31.8405C138.317 31.8474 138.245 31.8529 138.184 31.8587L138.103 31.8658L138.063 31.8693C138.049 31.87 138.036 31.87 138.022 31.8706C137.938 31.8709 137.785 31.8792 137.699 31.8757C137.485 31.8704 137.271 31.8522 137.059 31.819V31.8126C137.32 31.7629 137.579 31.7196 137.835 31.6517L137.987 31.6135C137.999 31.6103 138.012 31.6073 138.025 31.6038C138.107 31.5792 138.24 31.5396 138.324 31.515C138.45 31.471 138.602 31.4228 138.726 31.3724C140.898 30.5492 142.534 28.7095 143.204 26.3769C143.235 26.272 143.271 26.1269 143.3 26.0213C143.323 25.916 143.359 25.7652 143.381 25.6591C143.4 25.55 143.423 25.4411 143.443 25.332C143.46 25.2221 143.477 25.1116 143.497 25H143.503L143.503 25Z" fill="#7DD7DD"/>
<path d="M151.5 33.5365C151.288 33.5696 151.075 33.588 150.86 33.5933C150.772 33.5968 150.627 33.5891 150.537 33.5882C150.449 33.5855 150.304 33.5689 150.214 33.5618C150.193 33.5602 150.153 33.5558 150.133 33.5521C150.086 33.5443 149.941 33.5229 149.891 33.5148C149.837 33.5079 149.784 33.4938 149.731 33.4826C149.635 33.4612 149.504 33.4345 149.412 33.4057C147.161 32.7998 145.36 30.691 145.053 28.2495L145.042 28.1645L145.036 28.122C145.03 28.0487 145.024 27.972 145.019 27.9078L145.012 27.8224L145.009 27.7798C145.008 27.7655 145.008 27.7511 145.008 27.7368C145.007 27.6474 144.999 27.4858 145.003 27.3949C145.008 27.1677 145.025 26.9416 145.056 26.7178H145.062C145.109 26.9934 145.15 27.2674 145.214 27.5385L145.25 27.6992C145.253 27.7124 145.256 27.7259 145.26 27.7391C145.283 27.8268 145.32 27.9668 145.343 28.0556C145.385 28.1892 145.431 28.3501 145.478 28.4815C146.256 30.7796 147.995 32.5113 150.199 33.2204C150.298 33.2533 150.435 33.2912 150.535 33.3217C150.634 33.3461 150.777 33.3847 150.877 33.4078C150.98 33.4284 151.083 33.4524 151.186 33.4733C151.29 33.4913 151.394 33.5091 151.5 33.5305V33.5367L151.5 33.5365Z" fill="#7DD7DD"/>
<path d="M141.938 40.3493C141.891 40.0737 141.85 39.7996 141.786 39.5286C141.765 39.4315 141.735 39.3021 141.709 39.209C141.692 39.1476 141.662 39.0293 141.644 38.9724C140.974 36.6396 139.338 34.7999 137.166 33.9769C137.042 33.9263 136.89 33.8781 136.764 33.8342C136.682 33.8104 136.547 33.7697 136.465 33.7455C136.385 33.7241 136.342 33.7151 136.275 33.6976C136.019 33.6297 135.76 33.5864 135.5 33.5367V33.5303C135.712 33.4973 135.925 33.4789 136.14 33.4736C136.228 33.47 136.373 33.4778 136.463 33.4787C136.506 33.478 136.58 33.4874 136.624 33.4905L136.786 33.505L136.827 33.5088C136.849 33.5123 136.924 33.5233 136.948 33.5271C139.316 33.8622 141.335 35.8458 141.859 38.3078C141.875 38.4015 141.911 38.5518 141.923 38.6467C141.931 38.7148 141.955 38.8752 141.964 38.945C141.971 39.0398 141.984 39.1923 141.991 39.2873C141.994 39.367 141.994 39.4328 141.996 39.5014C142.001 39.6706 141.991 39.844 141.982 40.0121C141.97 40.1251 141.958 40.2375 141.944 40.3491H141.938V40.3493Z" fill="#7DD7DD"/>
<path d="M149.941 35.1841C149.68 35.2338 149.421 35.2771 149.165 35.345C149.073 35.3675 148.951 35.3986 148.863 35.4265C148.805 35.4438 148.693 35.4758 148.639 35.4944C146.435 36.2037 144.697 37.9354 143.919 40.2334C143.871 40.3647 143.826 40.5256 143.784 40.6593C143.762 40.7464 143.723 40.8884 143.7 40.9757C143.68 41.0599 143.672 41.1055 143.655 41.1764C143.591 41.4474 143.55 41.7214 143.503 41.9971H143.497C143.466 41.7731 143.449 41.5471 143.443 41.3199C143.44 41.227 143.447 41.0735 143.448 40.978C143.448 40.9326 143.456 40.8539 143.459 40.8071L143.473 40.6358L143.477 40.5928C143.48 40.5695 143.49 40.4904 143.494 40.4651C143.811 37.9587 145.685 35.8224 148.011 35.2674C148.1 35.2506 148.242 35.2121 148.332 35.1999C148.396 35.191 148.548 35.1656 148.614 35.1566C148.703 35.1489 148.847 35.135 148.937 35.1277C149.012 35.1242 149.074 35.1251 149.139 35.1226C149.299 35.1171 149.463 35.1276 149.622 35.1376C149.729 35.15 149.835 35.1624 149.94 35.1781V35.1843L149.941 35.1841Z" fill="#7DD7DD"/>
</g>
<g clip-path="url(#clip5_813_28694)">
<path d="M133.496 146C132.87 140.445 137.029 135.218 142.313 134.549C142.678 134.502 143.044 134.476 143.41 134.475C143.775 134.473 144.14 134.493 144.5 134.541V134.55C143.092 134.731 141.697 135.108 140.418 135.737C137.895 136.957 135.816 139.121 134.645 141.749C134.197 142.741 133.874 143.806 133.674 144.889C133.606 145.255 133.552 145.625 133.504 146H133.496H133.496Z" fill="#7DD7DD"/>
<path d="M133.504 123.092C134.13 128.647 129.971 133.873 124.687 134.543C124.322 134.589 123.956 134.615 123.59 134.617C123.224 134.619 122.86 134.599 122.5 134.55V134.542C123.908 134.36 125.303 133.983 126.582 133.354C129.105 132.134 131.184 129.97 132.355 127.342C132.803 126.351 133.126 125.285 133.326 124.202C133.394 123.837 133.448 123.466 133.496 123.092H133.504H133.504Z" fill="#7DD7DD"/>
<path d="M144.5 134.55C139.165 135.203 134.146 130.872 133.503 125.37C133.458 124.989 133.433 124.608 133.432 124.227C133.43 123.846 133.449 123.467 133.496 123.092H133.504C133.678 124.558 134.04 126.01 134.645 127.342C135.816 129.97 137.894 132.134 140.418 133.354C141.37 133.82 142.394 134.157 143.433 134.365C143.785 134.436 144.14 134.492 144.5 134.542V134.55V134.55Z" fill="#7DD7DD"/>
<path d="M122.5 134.542C127.835 133.889 132.854 138.22 133.497 143.722C133.542 144.103 133.567 144.484 133.568 144.865C133.57 145.246 133.551 145.625 133.504 146H133.496C133.322 144.534 132.96 143.082 132.355 141.75C131.184 139.122 129.106 136.958 126.582 135.738C125.63 135.272 124.606 134.935 123.567 134.727C123.215 134.656 122.86 134.6 122.5 134.55V134.542V134.542Z" fill="#7DD7DD"/>
<path d="M133.504 123C133.547 123.303 133.57 123.609 133.578 123.916C133.582 124.042 133.572 124.25 133.571 124.379C133.568 124.505 133.546 124.712 133.537 124.842C133.535 124.872 133.529 124.928 133.524 124.957C133.514 125.024 133.486 125.232 133.476 125.303C133.467 125.381 133.448 125.456 133.434 125.533C133.406 125.67 133.371 125.857 133.334 125.989C132.547 129.212 129.807 131.792 126.634 132.23L126.524 132.247L126.469 132.255C126.374 132.264 126.274 132.272 126.19 132.279L126.079 132.289L126.024 132.294C126.006 132.295 125.987 132.295 125.968 132.295C125.852 132.296 125.642 132.307 125.524 132.302C125.229 132.295 124.935 132.271 124.644 132.226V132.217C125.002 132.15 125.358 132.091 125.711 131.999L125.919 131.948C125.937 131.943 125.954 131.939 125.971 131.935C126.085 131.901 126.267 131.848 126.382 131.814C126.556 131.755 126.765 131.69 126.936 131.621C129.922 130.508 132.172 128.019 133.093 124.863C133.136 124.721 133.185 124.525 133.225 124.382C133.256 124.239 133.307 124.035 133.336 123.892C133.363 123.744 133.394 123.597 133.421 123.449C133.445 123.3 133.468 123.151 133.496 123H133.504H133.504Z" fill="#7DD7DD"/>
<path d="M144.5 134.55C144.209 134.594 143.915 134.619 143.62 134.626C143.499 134.631 143.3 134.621 143.176 134.619C143.054 134.616 142.856 134.593 142.731 134.584C142.703 134.582 142.648 134.576 142.62 134.571C142.556 134.56 142.356 134.531 142.288 134.52C142.213 134.511 142.141 134.492 142.068 134.477C141.936 134.448 141.756 134.412 141.629 134.373C138.534 133.553 136.057 130.7 135.636 127.397L135.62 127.282L135.612 127.224C135.603 127.125 135.596 127.021 135.588 126.934L135.579 126.819L135.574 126.761C135.574 126.742 135.574 126.722 135.573 126.703C135.572 126.582 135.562 126.363 135.566 126.24C135.573 125.933 135.597 125.627 135.64 125.324H135.648C135.713 125.697 135.769 126.068 135.857 126.435L135.907 126.652C135.911 126.67 135.915 126.688 135.919 126.706C135.951 126.825 136.003 127.014 136.035 127.134C136.092 127.315 136.155 127.533 136.22 127.71C137.29 130.82 139.68 133.163 142.711 134.122C142.847 134.166 143.036 134.218 143.173 134.259C143.31 134.292 143.506 134.344 143.643 134.375C143.785 134.403 143.927 134.436 144.068 134.464C144.211 134.488 144.355 134.513 144.5 134.541V134.55L144.5 134.55Z" fill="#7DD7DD"/>
<path d="M131.352 143.768C131.287 143.395 131.231 143.024 131.143 142.657C131.114 142.526 131.073 142.351 131.037 142.225C131.014 142.142 130.973 141.982 130.949 141.905C130.027 138.749 127.777 136.26 124.791 135.146C124.621 135.078 124.412 135.012 124.238 134.953C124.125 134.921 123.94 134.866 123.827 134.833C123.717 134.804 123.658 134.792 123.566 134.768C123.214 134.676 122.858 134.618 122.5 134.55V134.542C122.791 134.497 123.085 134.472 123.38 134.465C123.501 134.46 123.7 134.471 123.824 134.472C123.883 134.471 123.985 134.484 124.046 134.488L124.269 134.508L124.325 134.513C124.355 134.517 124.458 134.532 124.49 134.538C127.747 134.991 130.523 137.675 131.244 141.006C131.266 141.132 131.316 141.336 131.332 141.464C131.343 141.556 131.376 141.773 131.388 141.868C131.398 141.996 131.416 142.202 131.425 142.331C131.43 142.439 131.429 142.528 131.432 142.62C131.439 142.849 131.426 143.084 131.412 143.311C131.396 143.464 131.38 143.616 131.36 143.767H131.352V143.768Z" fill="#7DD7DD"/>
<path d="M142.356 136.78C141.998 136.847 141.641 136.905 141.289 136.997C141.163 137.028 140.995 137.07 140.874 137.108C140.794 137.131 140.641 137.174 140.567 137.199C137.536 138.159 135.145 140.502 134.076 143.611C134.01 143.789 133.948 144.006 133.891 144.187C133.86 144.305 133.807 144.497 133.775 144.615C133.748 144.729 133.736 144.791 133.713 144.887C133.625 145.253 133.569 145.624 133.504 145.997H133.496C133.453 145.694 133.429 145.388 133.422 145.081C133.417 144.955 133.428 144.748 133.429 144.618C133.428 144.557 133.44 144.451 133.444 144.387L133.463 144.155L133.468 144.097C133.472 144.066 133.487 143.959 133.492 143.925C133.927 140.534 136.504 137.643 139.703 136.892C139.825 136.87 140.02 136.817 140.144 136.801C140.232 136.789 140.44 136.755 140.531 136.742C140.654 136.732 140.852 136.713 140.976 136.703C141.079 136.699 141.165 136.7 141.254 136.696C141.474 136.689 141.699 136.703 141.918 136.717C142.064 136.733 142.21 136.75 142.355 136.771V136.78L142.356 136.78Z" fill="#7DD7DD"/>
</g>
<g clip-path="url(#clip6_813_28694)">
<path d="M65.496 22.9998C64.8696 17.4448 69.0287 12.2182 74.3127 11.5489C74.6779 11.5023 75.0443 11.4762 75.41 11.4748C75.7754 11.4726 76.1398 11.4927 76.5002 11.5413V11.5499C75.0923 11.7312 73.6973 12.1081 72.4183 12.7375C69.8947 13.9571 67.8161 16.1213 66.6448 18.7493C66.1971 19.7408 65.8741 20.8064 65.6736 21.8892C65.6056 22.2549 65.5516 22.6252 65.5043 22.9998H65.4963H65.496Z" fill="#7DD7DD"/>
<path d="M65.5039 0.0917969C66.1301 5.64704 61.9712 10.8734 56.6873 11.5426C56.322 11.5893 55.9556 11.6154 55.5899 11.6168C55.2245 11.6189 54.8602 11.5989 54.4998 11.5503V11.5417C55.9076 11.3604 57.3026 10.9834 58.5817 10.3541C61.1052 9.13446 63.1838 6.97025 64.3551 4.34224C64.8028 3.35079 65.1258 2.28519 65.3263 1.20237C65.3943 0.836641 65.4483 0.466372 65.4956 0.0917969H65.5037H65.5039Z" fill="#7DD7DD"/>
<path d="M76.5 11.5503C71.1651 12.2026 66.146 7.87176 65.5032 2.36962C65.4585 1.98931 65.4334 1.6078 65.432 1.227C65.43 0.846448 65.4493 0.467089 65.4959 0.0917969H65.5042C65.6783 1.55781 66.0403 3.01042 66.6447 4.34224C67.8159 6.97001 69.8943 9.13445 72.4181 10.3541C73.3703 10.8203 74.3936 11.1566 75.4335 11.3654C75.7847 11.4362 76.1403 11.4924 76.5 11.5417V11.5501V11.5503Z" fill="#7DD7DD"/>
<path d="M54.5 11.5417C59.835 10.8894 64.8541 15.2202 65.4968 20.7224C65.5416 21.1027 65.5666 21.4842 65.568 21.865C65.5701 22.2456 65.5508 22.6249 65.5041 23.0002H65.4959C65.3217 21.5342 64.9597 20.0816 64.3554 18.7498C63.1841 16.122 61.1057 13.9575 58.5819 12.7379C57.6298 12.2717 56.6064 11.9354 55.5665 11.7266C55.2153 11.6558 54.8597 11.5996 54.5 11.5503V11.5419V11.5417Z" fill="#7DD7DD"/>
<path d="M65.5039 0C65.5468 0.303056 65.5705 0.608744 65.5776 0.916106C65.5822 1.04192 65.5721 1.24954 65.5709 1.3787C65.5675 1.50524 65.5459 1.71238 65.5367 1.84178C65.5347 1.87168 65.5289 1.92813 65.5241 1.95731C65.514 2.02404 65.4862 2.23238 65.4756 2.30342C65.4667 2.38116 65.4483 2.45626 65.4338 2.53281C65.406 2.6701 65.3713 2.85715 65.3339 2.98918C64.5467 6.21182 61.8067 8.79151 58.6345 9.22995L58.524 9.24669L58.4689 9.25482C58.3735 9.26415 58.2738 9.27157 58.1904 9.27946L58.0795 9.28903L58.0241 9.29381C58.0055 9.29477 57.9869 9.29477 57.9683 9.29548C57.8521 9.29596 57.6421 9.30721 57.5241 9.30242C57.2289 9.29525 56.9351 9.27061 56.6443 9.22564V9.21703C57.0024 9.14982 57.3584 9.09121 57.7106 8.99936L57.9194 8.9477C57.9366 8.94339 57.9541 8.93933 57.9713 8.93454C58.0852 8.9013 58.2672 8.84772 58.3825 8.81447C58.5561 8.75491 58.7652 8.68961 58.9358 8.62144C61.9218 7.50776 64.1718 5.01873 65.0932 1.86283C65.1359 1.72099 65.185 1.52461 65.2248 1.38181C65.2565 1.23925 65.3066 1.03522 65.3364 0.891708C65.3631 0.744127 65.3943 0.596784 65.4214 0.449203C65.4448 0.300425 65.468 0.15093 65.4961 0H65.5041L65.5039 0Z" fill="#7DD7DD"/>
<path d="M76.5 11.5496C76.2089 11.5943 75.9154 11.6192 75.6202 11.6264C75.4994 11.6312 75.3 11.6207 75.1759 11.6195C75.0544 11.6159 74.8555 11.5934 74.7312 11.5838C74.7025 11.5817 74.6483 11.5757 74.6203 11.5707C74.5562 11.5601 74.3564 11.5312 74.2879 11.5202C74.2132 11.5109 74.1411 11.4917 74.0676 11.4767C73.9358 11.4477 73.7561 11.4116 73.6293 11.3726C70.5345 10.5529 68.0571 7.69982 67.636 4.39658L67.62 4.28153L67.6121 4.22412C67.6032 4.12486 67.5961 4.02105 67.5885 3.93422L67.5791 3.81869L67.5745 3.76105C67.5735 3.74167 67.5735 3.7223 67.5729 3.70292C67.5724 3.58189 67.5616 3.36327 67.5662 3.24032C67.5731 2.93296 67.5968 2.62704 67.6399 2.32422H67.6482C67.7128 2.69712 67.769 3.06787 67.8572 3.43455L67.9069 3.65197C67.911 3.66991 67.9149 3.68809 67.9195 3.70603C67.9514 3.82467 68.0029 4.01411 68.0348 4.13419C68.092 4.31502 68.1547 4.53268 68.2202 4.7104C69.2897 7.81966 71.68 10.1625 74.7108 11.1219C74.847 11.1664 75.0356 11.2176 75.1727 11.259C75.3096 11.292 75.5058 11.3442 75.6434 11.3755C75.7851 11.4032 75.9266 11.4358 76.0684 11.464C76.2112 11.4884 76.3548 11.5125 76.4998 11.5415V11.5499L76.5 11.5496Z" fill="#7DD7DD"/>
<path d="M63.3518 20.7666C63.2872 20.3937 63.231 20.0229 63.1427 19.6562C63.1138 19.5249 63.0731 19.3498 63.0368 19.2238C63.0143 19.1408 62.973 18.9807 62.9486 18.9037C62.0273 15.7476 59.7771 13.2585 56.7913 12.1451C56.6207 12.0767 56.4116 12.0114 56.238 11.9521C56.1247 11.9198 55.9403 11.8648 55.8268 11.832C55.7174 11.8031 55.6582 11.7909 55.5661 11.7672C55.2142 11.6753 54.8581 11.6167 54.5 11.5495V11.5409C54.791 11.4962 55.0846 11.4713 55.3798 11.4641C55.5006 11.4593 55.7 11.4699 55.824 11.4711C55.8831 11.4701 55.9853 11.4828 56.0462 11.4871L56.2687 11.5067L56.3246 11.5117C56.3549 11.5165 56.4576 11.5313 56.4904 11.5366C59.747 11.9899 62.5228 14.6736 63.2438 18.0046C63.2656 18.1314 63.3157 18.3347 63.3316 18.4631C63.343 18.5552 63.3761 18.7722 63.3878 18.8666C63.3977 18.9949 63.4159 19.2013 63.4253 19.3297C63.4299 19.4376 63.4287 19.5266 63.4319 19.6194C63.4391 19.8483 63.4255 20.0829 63.4124 20.3104C63.3963 20.4633 63.3803 20.6154 63.3598 20.7663H63.3518V20.7666Z" fill="#7DD7DD"/>
<path d="M74.3556 13.7786C73.9975 13.8459 73.6415 13.9045 73.2893 13.9963C73.1632 14.0267 72.9951 14.0688 72.874 14.1066C72.7943 14.13 72.6406 14.1733 72.5667 14.1984C69.5357 15.1581 67.1454 17.501 66.0761 20.61C66.0104 20.7877 65.9477 21.0054 65.8907 21.1862C65.8599 21.3041 65.8068 21.4962 65.7754 21.6143C65.7476 21.7282 65.7359 21.7899 65.7131 21.8858C65.6251 22.2525 65.5686 22.6233 65.5041 22.9962H65.4958C65.4529 22.6931 65.4292 22.3874 65.4221 22.08C65.4175 21.9542 65.4276 21.7466 65.4287 21.6174C65.4278 21.556 65.44 21.4495 65.4441 21.3861L65.463 21.1544L65.4678 21.0962C65.4724 21.0647 65.4866 20.9578 65.4917 20.9236C65.927 17.5325 68.5043 14.6421 71.7032 13.8913C71.825 13.8686 72.0202 13.8164 72.1436 13.7999C72.2322 13.788 72.4403 13.7535 72.5311 13.7413C72.6542 13.731 72.8524 13.7121 72.9758 13.7023C73.0794 13.6976 73.1648 13.6988 73.254 13.6954C73.4738 13.688 73.6991 13.7021 73.9176 13.7157C74.0644 13.7325 74.2105 13.7492 74.3554 13.7705V13.7789L74.3556 13.7786Z" fill="#7DD7DD"/>
</g>
<defs>
<clipPath id="clip0_813_28694">
<rect width="55" height="56" fill="white" transform="translate(72.5 45)"/>
</clipPath>
<clipPath id="clip1_813_28694">
<rect width="31" height="31" fill="white" transform="matrix(-1 0 0 1 199.5 70)"/>
</clipPath>
<clipPath id="clip2_813_28694">
<rect width="31" height="31" fill="white" transform="matrix(-1 0 0 1 31.5 44)"/>
</clipPath>
<clipPath id="clip3_813_28694">
<rect width="16" height="17" fill="white" transform="translate(47.5 103)"/>
</clipPath>
<clipPath id="clip4_813_28694">
<rect width="16" height="17" fill="white" transform="translate(135.5 25)"/>
</clipPath>
<clipPath id="clip5_813_28694">
<rect width="22" height="23" fill="white" transform="translate(122.5 123)"/>
</clipPath>
<clipPath id="clip6_813_28694">
<rect width="22" height="23" fill="white" transform="translate(54.5)"/>
</clipPath>
</defs>
</svg>
