<svg xmlns="http://www.w3.org/2000/svg" width="24" height="24" fill="none" viewBox="0 0 24 24">
  <path stroke="#8F8F8F" stroke-linejoin="round" d="M19 2H5a1 1 0 0 0-1 1v18a1 1 0 0 0 1 1h14a1 1 0 0 0 1-1V3a1 1 0 0 0-1-1Z"/>
  <path stroke="#8F8F8F" stroke-linecap="round" stroke-linejoin="round" d="M10.5 7h6m-6 5h6m-6 5h6"/>
  <path fill="#8F8F8F" fill-rule="evenodd" d="M7.5 8a1 1 0 1 0 0-2 1 1 0 0 0 0 2Zm0 5a1 1 0 1 0 0-2 1 1 0 0 0 0 2Zm0 5a1 1 0 1 0 0-2 1 1 0 0 0 0 2Z" clip-rule="evenodd"/>
</svg>
