<svg xmlns="http://www.w3.org/2000/svg" width="24" height="24" fill="none" viewBox="0 0 24 24">
  <path stroke="#CD148E" stroke-linecap="round" d="M21 13c0 4.418-4.03 8-9 8s-9-3.582-9-8m4.5-6.93A9.833 9.833 0 0 1 12 5c1.64 0 3.176.39 4.5 1.07"/>
  <path stroke="#CD148E" stroke-linecap="round" stroke-linejoin="round" d="M3 13V4.244c0-.866 1.025-1.322 1.669-.744L7.5 6.046M21 13V4.244c0-.866-1.025-1.322-1.669-.744L16.5 6.046"/>
  <path fill="#CD148E" d="M15 12.39a1 1 0 1 0 0-2 1 1 0 0 0 0 2Zm-6 0a1 1 0 1 0 0-2 1 1 0 0 0 0 2Zm4.194 1.92c0 .298-.622.71-.97.918a.447.447 0 0 1-.46 0c-.349-.207-.97-.62-.97-.918 0-.415.3-.75 1.2-.75.9 0 1.2.335 1.2.75Z"/>
  <path stroke="#CD148E" stroke-linecap="round" stroke-linejoin="round" d="M10.5 16.827c.716-.095 1.5-.923 1.5-1.751 0 .828.784 1.656 1.5 1.75m-6.63-2.133-5.143.5m6.001 2-5.143 3m14.532-5.5 5.143.5m-6 2 5.143 3"/>
</svg>
